<?xml version="1.0" encoding="utf-8"?>
<!-- Generator: Adobe Illustrator 23.1.1, SVG Export Plug-In . SVG Version: 6.00 Build 0)  -->
<svg version="1.1" id="Layer_1" xmlns="http://www.w3.org/2000/svg" xmlns:xlink="http://www.w3.org/1999/xlink" x="0px" y="0px"
	 viewBox="0 0 210 30" style="enable-background:new 0 0 210 30;" xml:space="preserve">
<style type="text/css">
	.st0{fill-rule:evenodd;clip-rule:evenodd;}
</style>
<path class="st0" d="M6.697,5.391L5.366,4.072c2.631-2.352,6.114-3.786,9.928-3.786c3.777,0,7.228,1.409,9.851,3.724l-1.331,1.319
	l-1.339,1.327c-1.936-1.64-4.442-2.634-7.182-2.634c-2.776,0-5.313,1.02-7.257,2.698L6.697,5.391z M15.294,5.96
	c5.026,0,9.115,4.056,9.115,9.04c0,4.982-4.089,9.04-9.115,9.04c-5.03,0-9.12-4.057-9.12-9.04C6.174,10.016,10.264,5.96,15.294,5.96
	z M15.294,9.885c-2.847,0-5.163,2.296-5.163,5.115c0,2.821,2.316,5.114,5.163,5.114c2.844,0,5.159-2.292,5.159-5.114
	C20.453,12.18,18.138,9.885,15.294,9.885z M22.441,23.374c-1.932,1.621-4.426,2.603-7.146,2.603c-2.759,0-5.28-1.007-7.22-2.664
	l-1.342,1.327l-1.327,1.318c2.624,2.334,6.09,3.756,9.889,3.756c3.759,0,7.198-1.398,9.817-3.692l-1.331-1.319L22.441,23.374z
	 M6.876,22.121C5.221,20.202,4.219,17.716,4.219,15c0-2.7,0.991-5.171,2.626-7.084l-1.34-1.329L4.174,5.268
	C1.859,7.865,0.45,11.271,0.45,15c0,3.746,1.422,7.169,3.756,9.769l1.332-1.319L6.876,22.121z M25.017,6.517l-1.34,1.324
	c1.674,1.924,2.688,4.428,2.688,7.159c0,2.751-1.028,5.264-2.717,7.191l1.337,1.327l1.332,1.323c2.371-2.61,3.817-6.063,3.817-9.841
	c0-3.766-1.435-7.199-3.786-9.804L25.017,6.517z"/>
<path class="st0" d="M208.09,5.021c0-0.244-0.075-0.438-0.231-0.584c-0.157-0.144-0.351-0.218-0.587-0.218h-1.215v2.655h0.63V5.831
	h0.309l0.386,1.044h0.662l-0.431-1.111l0.338-0.271C208.043,5.371,208.09,5.214,208.09,5.021z M207.359,5.294l-0.306,0.083h-0.366
	v-0.6h0.388l0.297,0.072l0.111,0.226L207.359,5.294z M209.207,4.311c-0.231-0.38-0.535-0.678-0.92-0.901
	c-0.382-0.223-0.805-0.333-1.27-0.333c-0.465,0-0.888,0.111-1.275,0.333c-0.388,0.223-0.697,0.521-0.925,0.901
	c-0.226,0.375-0.342,0.8-0.342,1.266c0,0.466,0.115,0.886,0.342,1.265c0.228,0.377,0.537,0.678,0.925,0.899
	c0.386,0.223,0.81,0.333,1.275,0.333c0.465,0,0.888-0.111,1.27-0.333c0.385-0.221,0.689-0.523,0.92-0.899
	c0.226-0.378,0.343-0.798,0.343-1.265C209.55,5.111,209.433,4.686,209.207,4.311z M208.604,6.487
	c-0.167,0.273-0.386,0.491-0.664,0.649c-0.276,0.159-0.585,0.239-0.923,0.239c-0.34,0-0.649-0.08-0.928-0.239
	c-0.279-0.159-0.505-0.377-0.675-0.649c-0.168-0.273-0.253-0.577-0.253-0.909c0-0.341,0.085-0.648,0.253-0.919
	c0.17-0.269,0.396-0.487,0.675-0.649c0.279-0.162,0.588-0.242,0.928-0.242c0.338,0,0.648,0.08,0.923,0.242
	c0.277,0.162,0.497,0.38,0.664,0.649c0.165,0.271,0.248,0.577,0.248,0.919C208.853,5.91,208.77,6.214,208.604,6.487z M49.95,8.442
	c-0.782-0.92-1.776-1.65-2.951-2.172c-1.172-0.519-2.544-0.782-4.077-0.782h-7.908v19.846h7.908c2.047,0,3.791-0.457,5.187-1.356
	c1.391-0.898,2.456-2.116,3.16-3.62c0.701-1.488,1.053-3.153,1.053-4.947c0-1.327-0.2-2.602-0.598-3.79
	C51.329,10.427,50.731,9.358,49.95,8.442z M47.994,18.651c-0.396,0.957-1.023,1.73-1.866,2.302
	c-0.838,0.569-1.964,0.859-3.346,0.859h-4.105V9.01h4.105c1.38,0,2.504,0.293,3.342,0.872c0.845,0.582,1.473,1.358,1.869,2.316
	c0.406,0.976,0.611,2.058,0.611,3.213C48.605,16.583,48.4,17.676,47.994,18.651z M64.756,10.89c-1.042-0.622-2.219-0.939-3.49-0.939
	c-1.379,0-2.671,0.324-3.839,0.959c-1.17,0.64-2.124,1.566-2.834,2.756c-0.712,1.189-1.071,2.632-1.071,4.293
	c0,1.46,0.341,2.785,1.013,3.934c0.672,1.153,1.622,2.071,2.821,2.728c1.199,0.654,2.597,0.986,4.158,0.986
	c1.164,0,2.297-0.231,3.365-0.685c1.01-0.426,1.826-0.925,2.433-1.478l0.303-0.338l-1.752-2.554l-0.29,0.245
	c-0.388,0.335-0.895,0.688-1.5,1.048c-0.569,0.34-1.337,0.513-2.281,0.513c-1.313,0-2.403-0.356-3.249-1.058
	c-0.76-0.632-1.233-1.449-1.436-2.483h11.04l0.034-1.544c0-1.441-0.311-2.72-0.925-3.807C66.636,12.378,65.798,11.511,64.756,10.89z
	 M57.252,15.895c0.263-0.912,0.717-1.569,1.348-1.964c0.752-0.465,1.651-0.704,2.666-0.704c0.55,0,1.076,0.122,1.56,0.362
	c0.484,0.239,0.895,0.579,1.22,1.012c0.29,0.38,0.473,0.822,0.539,1.294H57.252z M191.516,10.89
	c-1.044-0.622-2.215-0.939-3.488-0.939c-1.38,0-2.669,0.324-3.839,0.959c-1.17,0.64-2.127,1.566-2.834,2.756
	c-0.712,1.189-1.071,2.632-1.071,4.293c0,1.46,0.342,2.785,1.013,3.934c0.67,1.153,1.621,2.071,2.821,2.728
	c1.198,0.654,2.595,0.986,4.157,0.986c1.165,0,2.299-0.231,3.368-0.685c1.008-0.426,1.824-0.925,2.43-1.478l0.306-0.338
	l-1.757-2.554l-0.287,0.245c-0.391,0.335-0.893,0.688-1.499,1.048c-0.572,0.34-1.339,0.513-2.284,0.513
	c-1.311,0-2.403-0.356-3.248-1.058c-0.76-0.632-1.234-1.449-1.438-2.483h11.04l0.034-1.544c0-1.441-0.309-2.72-0.927-3.807
	C193.396,12.378,192.559,11.511,191.516,10.89z M184.012,15.895c0.263-0.912,0.715-1.569,1.35-1.964
	c0.752-0.465,1.65-0.704,2.666-0.704c0.55,0,1.077,0.122,1.558,0.362c0.484,0.239,0.895,0.579,1.22,1.012
	c0.292,0.38,0.471,0.822,0.537,1.294H184.012z M146.73,10.985c-1.161-0.667-2.478-1.005-3.911-1.005
	c-1.436,0-2.757,0.338-3.928,1.002c-1.17,0.667-2.111,1.6-2.792,2.768c-0.68,1.167-1.024,2.53-1.024,4.044
	c0,1.512,0.345,2.874,1.024,4.041c0.681,1.172,1.622,2.102,2.792,2.768c1.17,0.665,2.49,1.002,3.928,1.002
	c1.433,0,2.751-0.338,3.911-1.002c1.164-0.667,2.098-1.597,2.777-2.768c0.681-1.167,1.026-2.531,1.026-4.041
	c0-1.515-0.345-2.874-1.026-4.044C148.828,12.581,147.893,11.649,146.73,10.985z M146.954,17.798
	c0.014,0.888-0.162,1.688-0.526,2.369c-0.369,0.683-0.87,1.226-1.497,1.611c-0.624,0.385-1.334,0.58-2.113,0.58
	c-0.782,0-1.497-0.196-2.131-0.58c-0.636-0.386-1.14-0.928-1.507-1.609c-0.366-0.684-0.545-1.483-0.528-2.382
	c-0.018-0.906,0.162-1.71,0.528-2.397c0.365-0.681,0.87-1.217,1.505-1.593c0.632-0.377,1.35-0.569,2.132-0.569
	c0.779,0,1.491,0.191,2.118,0.569c0.624,0.375,1.124,0.911,1.491,1.593c0.365,0.686,0.542,1.491,0.527,2.397V17.798z
	 M173.869,16.967l7.259,8.365h-4.543l-5.229-6.037l-1.209,1.135v4.902h-3.525V4.393h3.525v11.851l6.068-5.963h4.838L173.869,16.967z
	 M163.262,19.999l1.999,2.435l-0.147,0.208c-0.372,0.523-0.883,1.015-1.518,1.464c-0.63,0.447-1.356,0.811-2.158,1.085
	c-0.808,0.276-1.661,0.415-2.541,0.415c-1.385,0-2.653-0.349-3.772-1.037c-1.116-0.683-2.007-1.63-2.648-2.81
	c-0.64-1.175-0.968-2.51-0.968-3.964c0-1.478,0.329-2.817,0.968-3.984c0.643-1.169,1.534-2.11,2.648-2.796
	c1.119-0.686,2.387-1.036,3.772-1.036c1.39,0,2.65,0.285,3.746,0.845c1.1,0.567,1.938,1.314,2.485,2.222l0.122,0.205l-2.015,2.449
	l-0.255-0.374c-0.393-0.577-0.967-1.082-1.699-1.5c-0.728-0.417-1.436-0.625-2.108-0.625c-0.797,0-1.528,0.199-2.171,0.593
	c-0.646,0.396-1.162,0.944-1.537,1.625c-0.374,0.686-0.566,1.484-0.566,2.374c0,0.885,0.204,1.68,0.604,2.361
	c0.401,0.688,0.938,1.238,1.595,1.635c0.649,0.394,1.358,0.595,2.1,0.595c0.848,0,1.59-0.22,2.209-0.649
	c0.652-0.455,1.188-0.933,1.59-1.419L163.262,19.999z M202.112,10.281h3.368v3.413h-3.368v11.638h-3.527V13.694h-3.01v-3.413h3.01
	V6.61h3.527V10.281z M118.051,10.288l0.244,0.12l-0.912,3.742l-0.382-0.191c-0.16-0.079-0.362-0.147-0.606-0.207
	c-0.237-0.056-0.494-0.085-0.76-0.085c-0.532,0-1.064,0.139-1.582,0.412c-0.519,0.273-0.955,0.668-1.3,1.177
	c-0.337,0.499-0.51,1.103-0.51,1.799v8.278h-3.552V10.281h3.552v1.837c0.361-0.47,0.795-0.88,1.305-1.23
	c0.874-0.604,1.808-0.909,2.775-0.909C117.065,9.98,117.631,10.079,118.051,10.288z M132.674,16.467
	c0.668,0.779,1.007,1.735,1.007,2.833c0,1.92-0.672,3.469-1.996,4.607c-1.308,1.127-3.123,1.699-5.389,1.699
	c-1.534,0-2.956-0.306-4.221-0.911c-1.273-0.604-2.4-1.601-3.35-2.959l-0.149-0.215l2.502-2.852l0.25,0.356
	c0.728,1.042,1.499,1.858,2.283,2.424c0.757,0.55,1.763,0.829,2.99,0.829c0.587,0,1.149-0.098,1.682-0.284
	c0.518-0.181,0.947-0.447,1.278-0.79c0.308-0.321,0.457-0.694,0.457-1.137c0-0.798-0.333-1.406-1.02-1.855
	c-0.741-0.487-1.812-0.864-3.179-1.13c-1.855-0.375-3.358-1.04-4.468-1.977c-1.141-0.965-1.719-2.374-1.719-4.186
	c0-1.169,0.335-2.193,0.994-3.054c0.649-0.846,1.516-1.508,2.579-1.967c1.052-0.455,2.203-0.686,3.426-0.686
	c1.574,0,2.959,0.311,4.109,0.915c1.156,0.614,2.074,1.496,2.732,2.623l0.131,0.226l-2.595,2.539l-0.221-0.37
	c-0.468-0.776-1.068-1.412-1.781-1.893c-0.693-0.47-1.521-0.71-2.459-0.71c-0.939,0-1.735,0.216-2.363,0.643
	c-0.596,0.402-0.888,0.943-0.888,1.65c0,0.813,0.301,1.385,0.923,1.752c0.694,0.409,1.63,0.741,2.785,0.986
	c1.108,0.226,2.174,0.572,3.169,1.039C131.188,15.087,132.03,15.711,132.674,16.467z M103.34,10.89
	c-1.047-0.622-2.219-0.939-3.492-0.939c-1.379,0-2.669,0.324-3.839,0.959c-1.17,0.64-2.127,1.566-2.834,2.756
	c-0.712,1.189-1.071,2.632-1.071,4.293c0,1.46,0.341,2.785,1.013,3.934c0.673,1.153,1.621,2.071,2.821,2.728
	c1.197,0.654,2.599,0.986,4.157,0.986c1.167,0,2.299-0.231,3.368-0.685c1.008-0.426,1.824-0.925,2.432-1.478l0.305-0.338
	l-1.755-2.554l-0.289,0.245c-0.389,0.335-0.893,0.688-1.499,1.048c-0.571,0.34-1.337,0.513-2.284,0.513
	c-1.31,0-2.405-0.356-3.246-1.058c-0.763-0.632-1.236-1.449-1.44-2.483h11.04l0.035-1.544c0-1.441-0.313-2.72-0.927-3.807
	C105.219,12.378,104.379,11.511,103.34,10.89z M95.833,15.895c0.261-0.912,0.715-1.569,1.351-1.964
	c0.752-0.465,1.646-0.704,2.664-0.704c0.551,0,1.077,0.122,1.561,0.362c0.483,0.239,0.891,0.579,1.217,1.012
	c0.29,0.38,0.471,0.822,0.537,1.294H95.833z M86.978,25.332h3.527V4.391h-3.527V25.332z M80.678,11.644
	c-0.378-0.351-0.824-0.673-1.324-0.962c-0.814-0.466-1.77-0.702-2.839-0.702c-1.419,0-2.703,0.335-3.82,0.991
	c-1.116,0.659-2.005,1.587-2.637,2.762c-0.635,1.165-0.954,2.525-0.954,4.033c0,1.512,0.311,2.869,0.922,4.045
	c0.614,1.18,1.459,2.116,2.509,2.785c1.053,0.672,2.235,1.012,3.512,1.012c1.199,0,2.273-0.284,3.188-0.843
	c0.564-0.345,1.048-0.712,1.443-1.092v1.661h3.556V10.281h-3.556V11.644z M80.27,20.121c-0.34,0.683-0.819,1.23-1.427,1.622
	c-0.603,0.391-1.323,0.587-2.135,0.587c-0.774,0-1.476-0.196-2.081-0.587c-0.606-0.393-1.085-0.939-1.425-1.622
	c-0.345-0.688-0.518-1.48-0.518-2.355c0-0.874,0.172-1.662,0.518-2.342c0.338-0.672,0.818-1.207,1.424-1.592
	c0.604-0.383,1.305-0.574,2.082-0.574c0.813,0,1.531,0.194,2.135,0.587c0.608,0.393,1.088,0.933,1.428,1.606
	c0.345,0.681,0.516,1.459,0.516,2.315C80.788,18.639,80.617,19.433,80.27,20.121z"/>
</svg>
